<svg id="Lag_1" data-name="Lag 1" xmlns="http://www.w3.org/2000/svg" viewBox="0 0 200 200"><defs><style>.cls-1{fill:#fff;}.cls-2{fill:#003d76;}</style></defs><title>Fog-logo1</title><rect class="cls-1" width="200" height="200"/><rect class="cls-2" x="10.07" y="11.14" width="180.09" height="177.71"/><polygon class="cls-1" points="52.69 123.05 61.58 123.05 61.58 94.19 74.35 94.19 74.35 86.04 61.58 86.04 61.58 64.63 75.9 64.63 75.9 56.57 52.69 56.57 52.69 123.05"/><path class="cls-1" d="M97.05,69.73c-8.89,0-14.26,5.19-14.26,14.27v25.59c0,9.07,5.37,14.27,14.26,14.27s14.26-5.2,14.26-14.27V84c0-9.08-5.38-14.27-14.26-14.27m5.48,39.35c0,4.69-2.18,6.93-5.48,6.93s-5.48-2.24-5.48-6.93V84.51c0-4.69,2.17-6.93,5.48-6.93s5.48,2.24,5.48,6.93Z"/><path class="cls-1" d="M139.8,74c-1-2.65-4.54-4.28-7.75-4.28-8.37,0-12.29,5.09-12.29,14.27v25.59c0,9.17,3.92,14.27,12.29,14.27,3,0,6.51-1.73,7.44-4.08v8.36c0,4.69-2.06,6.94-5.37,6.94s-5.37-2.25-5.37-6.94v-.91H120v1.42c0,9.08,5.27,14.28,14.15,14.28s14.15-5.2,14.15-14.28V70.54h-8.5Zm-.31,35.07c0,4.69-2.17,6.93-5.47,6.93s-5.48-2.24-5.48-6.93V84.51c0-4.69,2.17-6.93,5.48-6.93s5.47,2.24,5.47,6.93Z"/><path class="cls-1" d="M160,76a2,2,0,0,0-.5-.79,1.77,1.77,0,0,0-.63-.38,2,2,0,0,0,1-.51,1.45,1.45,0,0,0,.36-1,1.72,1.72,0,0,0-.15-.74,1.33,1.33,0,0,0-.45-.52,2.29,2.29,0,0,0-.74-.31,5.55,5.55,0,0,0-1-.09h-1.62a.6.6,0,0,0-.46.17.7.7,0,0,0-.16.48v5a.22.22,0,0,0,.15.21,1.82,1.82,0,0,0,.57,0,1.75,1.75,0,0,0,.56,0,.21.21,0,0,0,.12-.21v-2h.38a1,1,0,0,1,.69.2,1.55,1.55,0,0,1,.41.71l.29,1a.38.38,0,0,0,.08.17.21.21,0,0,0,.14.1h1.28c.06,0,.1,0,.11-.07a.21.21,0,0,0,0-.11,1.8,1.8,0,0,0-.1-.4Zm-1.53-2a1.16,1.16,0,0,1-.81.22H157v-1.5h.65a2,2,0,0,1,.48.06.63.63,0,0,1,.32.15.51.51,0,0,1,.16.25.93.93,0,0,1,0,.29.78.78,0,0,1-.23.58"/><path class="cls-1" d="M162.94,72.54a5.12,5.12,0,0,0-2.86-2.82,5.93,5.93,0,0,0-2.21-.4,5.59,5.59,0,0,0-2.17.42,5.25,5.25,0,0,0-2.92,2.86,5.16,5.16,0,0,0-.43,2.12,5.53,5.53,0,0,0,.41,2.16,5,5,0,0,0,1.13,1.7,5.23,5.23,0,0,0,1.73,1.13,5.91,5.91,0,0,0,2.2.4,5.51,5.51,0,0,0,2.16-.42,5.42,5.42,0,0,0,1.76-1.15,5.38,5.38,0,0,0,1.6-3.85,5.62,5.62,0,0,0-.4-2.15m-1.16,3.88a4.21,4.21,0,0,1-.86,1.34,4.11,4.11,0,0,1-1.34.92,4.72,4.72,0,0,1-3.43,0,3.88,3.88,0,0,1-1.34-.89,4.27,4.27,0,0,1-.88-1.38,4.91,4.91,0,0,1-.31-1.78,4.58,4.58,0,0,1,.3-1.64,4,4,0,0,1,.86-1.36,4.08,4.08,0,0,1,1.34-.91,4.39,4.39,0,0,1,1.75-.33,4.84,4.84,0,0,1,1.68.3A3.89,3.89,0,0,1,161.76,73a4.76,4.76,0,0,1,.32,1.79,4.68,4.68,0,0,1-.3,1.65"/></svg>